<svg width="121" height="40" viewBox="0 0 121 40" fill="none" xmlns="http://www.w3.org/2000/svg">
<path fill-rule="evenodd" clip-rule="evenodd" d="M16.9938 7.88753C20.0418 4.83957 24.9811 4.83957 28.0291 7.88753L28.0238 7.89284C31.0717 10.9408 31.0717 15.8801 28.0238 18.9281L26.1854 20.7664L18.8295 28.1224L16.5959 30.356C15.8001 31.1518 14.5056 31.1518 13.7098 30.356L11.4762 28.1224L7.79688 24.4431L11.4762 20.7638L7.79891 17.0865L4.1243 20.7611L2.28597 18.9228C-0.76199 15.8748 -0.76199 10.9355 2.28597 7.88753C5.33393 4.83957 10.2733 4.83957 13.3212 7.88753L15.1575 9.72383L16.9938 7.88753ZM15.1575 9.7279L11.4803 13.4052L9.64193 11.5668C8.62859 10.5509 6.98126 10.5509 5.96528 11.5668V11.5642C4.94929 12.5802 4.94929 14.2275 5.96528 15.2435L7.80156 17.0798L11.4762 13.4052L15.1555 17.0845L18.8348 13.4052L17.9143 12.4847L15.1575 9.7279ZM45.8685 8.60938C42.2395 8.60938 38.5258 10.3549 38.5258 14.0952C38.5258 18.1963 41.7408 19.3873 45.009 20.3848C47.529 21.1593 49.0544 21.6315 49.0544 23.377C49.0544 24.8997 48.0304 25.6769 45.9799 25.6769C44.0434 25.6769 42.5764 24.5389 42.2581 22.6581H37.6875C38.3613 27.2181 41.7621 29.3323 45.9825 29.3323C49.7494 29.3323 53.4366 27.4754 53.4366 23.4301C53.4366 19.3847 50.195 18.1936 46.7863 17.1697C44.2927 16.4216 42.908 15.7292 42.908 14.3154C42.908 12.9015 44.1283 12.2383 45.7332 12.2383C47.4203 12.2383 48.3965 12.9519 48.8315 14.5382H53.3125V17.6933H55.7609V23.2906C55.7609 26.6144 56.5541 29.0522 60.626 28.97L62.6474 28.9435V25.5905H61.7879L61.7906 25.5878C59.9894 25.5878 59.9071 24.5082 59.9071 22.569V17.6933H63.0347V14.534H59.9071V9.54688L55.7609 10.9926V14.534H53.314C52.6548 10.2291 49.6871 8.60938 45.8711 8.60938H45.8685ZM70.8366 14.0391C74.7997 14.0391 77.2641 16.0604 77.2641 20.44V24.9841C77.2641 26.093 77.2906 27.8093 77.54 28.8624H73.3567C73.2744 28.5308 73.2187 28.0321 73.2187 27.7827V26.9525H73.1922C72.4706 28.1435 71.2531 29.2789 68.8709 29.2789C65.9344 29.2789 63.8281 27.5891 63.8281 24.9576C63.8281 21.1075 68.2863 20.5254 70.1976 20.2759L70.1999 20.2756L70.3177 20.261C72.0493 20.0474 73.1099 19.9166 73.1099 18.6972C73.1099 17.6176 72.1682 17.0897 70.8392 17.0897C69.619 17.0897 68.733 17.782 68.3722 18.9731H64.4648C64.937 16.4238 67.0697 14.0417 70.8366 14.0417V14.0391ZM70.2012 26.2574C71.7525 26.257 73.1657 25.3971 73.1657 22.2121L73.1391 21.464C72.7784 22.0449 72.0038 22.5436 70.5076 22.8779C68.7065 23.2652 68.0963 23.8488 68.0963 24.6791C68.0963 25.5091 68.6504 26.257 70.2012 26.2574ZM85.0347 24.2296H84.9525V24.2322C84.4426 22.4749 83.9328 20.8922 83.4194 19.2985L83.4193 19.2982C82.9284 17.7743 82.4342 16.2403 81.9337 14.5339H77.4453C78.3398 17.138 79.2444 19.5984 80.2823 22.4212L80.2824 22.4215L80.283 22.4232L80.2839 22.4256C81.0122 24.4065 81.8062 26.5659 82.7083 29.0787L82.4032 30.0761C82.1539 31.0178 81.5703 31.2115 80.74 31.2115H79.2173V34.3974H82.4324C84.3715 34.3974 85.5361 33.4557 86.1727 31.7367L86.9243 29.626L86.9308 29.6076C89.18 23.2911 89.2649 23.0525 89.3439 22.812L89.3533 22.7833C89.4378 22.5249 89.6062 22.01 92.2395 14.5312H87.7776C87.3993 15.875 87.0209 17.1438 86.6619 18.3478L86.6617 18.3484C86.0214 20.4955 85.4426 22.4366 85.0347 24.2296ZM115.641 9.07812H120.073V28.8594H115.641V9.07812ZM106.866 9.07812H102.775L95.7109 28.8594H100.337L101.91 24.0951H108.508L110.081 28.8594H114.707L107.643 9.07812H106.868H106.866ZM103.062 20.6041L105.208 14.0997L107.354 20.6041H103.062Z" fill="#CF088B"/>
</svg>
