<svg width="32" height="26" viewBox="0 0 32 26" fill="none" xmlns="http://www.w3.org/2000/svg">
<path d="M32 26H19.7086C18.5077 22.1088 17.9073 18.0762 17.9073 13.902C17.9073 9.65714 19.0022 6.29659 21.1921 3.8204C23.4525 1.27347 26.7726 0 31.1523 0V5.94286C27.6203 5.94286 25.8543 8.10068 25.8543 12.4163V14.4326H32V26ZM14.0927 26H1.80132C0.600442 22.1088 0 18.0762 0 13.902C0 9.65714 1.09492 6.29659 3.28477 3.8204C5.54525 1.27347 8.86534 0 13.245 0V5.94286C9.71302 5.94286 7.94702 8.10068 7.94702 12.4163V14.4326H14.0927V26Z" fill="#FB9DDB"/>
</svg>
