<svg width="21" height="20" viewBox="0 0 21 20" fill="none" xmlns="http://www.w3.org/2000/svg">
<path d="M5.8457 17.8018C7.16719 18.5639 8.70046 19 10.3356 19C15.3061 19 19.3359 14.9706 19.3359 10C19.3359 5.02944 15.3065 1 10.3359 1C5.36537 1 1.33594 5.02944 1.33594 10C1.33594 11.6351 1.77198 13.1684 2.53413 14.4899L2.53708 14.495C2.61042 14.6221 2.6474 14.6863 2.66415 14.7469C2.67994 14.804 2.68436 14.8554 2.68031 14.9146C2.67596 14.9781 2.65454 15.044 2.61062 15.1758L1.8418 17.4823L1.84083 17.4853C1.67862 17.9719 1.59751 18.2152 1.65532 18.3774C1.70573 18.5187 1.81762 18.6303 1.95898 18.6807C2.12075 18.7384 2.36298 18.6577 2.84748 18.4962L2.85352 18.4939L5.15998 17.7251C5.29131 17.6813 5.35807 17.6591 5.42153 17.6548C5.48069 17.6507 5.53171 17.6561 5.58887 17.6719C5.64962 17.6887 5.71377 17.7257 5.84157 17.7994L5.8457 17.8018Z" stroke="#CF088B" stroke-width="2" stroke-linecap="round" stroke-linejoin="round"/>
</svg>
