<svg width="26" height="26" viewBox="0 0 26 26" fill="none" xmlns="http://www.w3.org/2000/svg">
<g clip-path="url(#clip0_8857_142838)">
<g>
<path fill-rule="evenodd" clip-rule="evenodd" d="M2.88874 26H23.111C24.7064 26 25.9998 24.7066 25.9998 23.1111V2.88889C25.9998 1.2934 24.7064 0 23.111 0H2.88874C1.29325 0 -0.000152588 1.2934 -0.000152588 2.88889V23.1111C-0.000152588 24.7066 1.29325 26 2.88874 26Z" fill="#007EBB"/>
<path fill-rule="evenodd" clip-rule="evenodd" d="M22.3886 22.3872H18.5304V15.8157C18.5304 14.014 17.8458 13.0071 16.4197 13.0071C14.8684 13.0071 14.0578 14.0549 14.0578 15.8157V22.3872H10.3396V9.86863H14.0578V11.5549C14.0578 11.5549 15.1758 9.48618 17.8323 9.48618C20.4876 9.48618 22.3886 11.1077 22.3886 14.4612V22.3872ZM5.90369 8.22944C4.63717 8.22944 3.61087 7.19508 3.61087 5.91941C3.61087 4.64373 4.63717 3.60938 5.90369 3.60938C7.17021 3.60938 8.1959 4.64373 8.1959 5.91941C8.1959 7.19508 7.17021 8.22944 5.90369 8.22944ZM3.98374 22.3872H7.86093V9.86863H3.98374V22.3872Z" fill="white"/>
</g>
</g>
<defs>
<clipPath>
<rect width="26" height="26" fill="white"/>
</clipPath>
</defs>
</svg>
