<svg width="24" height="24" viewBox="0 0 24 24" fill="none" xmlns="http://www.w3.org/2000/svg">
  <g>
  <path d="M11.2004 2.46103C11.4521 1.68641 12.5479 1.6864 12.7996 2.46103L14.5054 7.71082C14.618 8.05725 14.9408 8.2918 15.305 8.2918H20.825C21.6395 8.2918 21.9781 9.33405 21.3192 9.8128L16.8535 13.0573C16.5588 13.2714 16.4355 13.651 16.548 13.9974L18.2538 19.2472C18.5055 20.0218 17.6189 20.6659 16.9599 20.1872L12.4942 16.9427C12.1995 16.7285 11.8005 16.7285 11.5058 16.9427L7.04006 20.1872C6.38112 20.6659 5.49452 20.0218 5.74622 19.2472L7.45198 13.9974C7.56454 13.651 7.44123 13.2715 7.14654 13.0573L2.6808 9.8128C2.02186 9.33405 2.36051 8.2918 3.17501 8.2918H8.69496C9.05921 8.2918 9.38204 8.05725 9.4946 7.71082L11.2004 2.46103Z" fill="currentColor"/>
  </g>
</svg>