<svg xmlns="http://www.w3.org/2000/svg" width="24" height="24" viewBox="0 0 24 24" fill="none">
    <g opacity="0.7">
        <path d="M17.8748 16.4598L22.1577 20.7418L20.7428 22.1568L16.4608 17.8738C14.8675 19.151 12.8858 19.8457 10.8438 19.8428C5.87575 19.8428 1.84375 15.8108 1.84375 10.8428C1.84375 5.87477 5.87575 1.84277 10.8438 1.84277C15.8118 1.84277 19.8438 5.87477 19.8438 10.8428C19.8467 12.8848 19.152 14.8665 17.8748 16.4598ZM15.8687 15.7178C17.1379 14.4127 17.8466 12.6632 17.8438 10.8428C17.8438 6.97477 14.7108 3.84277 10.8438 3.84277C6.97575 3.84277 3.84375 6.97477 3.84375 10.8428C3.84375 14.7098 6.97575 17.8428 10.8438 17.8428C12.6642 17.8456 14.4136 17.1369 15.7188 15.8678L15.8687 15.7178Z" fill="#020202"/>
    </g>
</svg>