<svg width="16" height="16" viewBox="0 0 16 16" fill="none" xmlns="http://www.w3.org/2000/svg">
<path fill-rule="evenodd" clip-rule="evenodd" d="M3.14788 4.45813C3.68413 3.92187 4.55362 3.92187 5.08847 4.45813L6.05876 5.42842L8.00075 3.48643L7.03046 2.51614C5.4217 0.907381 2.81465 0.907381 1.20589 2.51614C-0.40286 4.12489 -0.40286 6.73195 1.20589 8.3407L2.17619 9.311L4.11818 7.36901L3.14788 6.39871C2.61163 5.86246 2.61163 4.99298 3.14788 4.45673V4.45813ZM8.97234 2.51614C10.5811 0.907381 13.1881 0.907381 14.7969 2.51614L14.7941 2.51894C16.4029 4.12769 16.4029 6.73475 14.7941 8.3435L13.8238 9.3138L9.94123 13.1964L8.76231 14.3753C8.34227 14.7953 7.65901 14.7953 7.23897 14.3753L6.06005 13.1964L4.11807 11.2544L6.06005 9.3124L4.11807 7.37041L6.06005 5.42842L8.00204 7.37041L9.94403 5.42842L9.45818 4.94257L8.00204 3.48643L8.97234 2.51614Z" fill="#CF088B"/>
</svg>
