<svg width="32" height="32" viewBox="0 0 32 32" fill="none" xmlns="http://www.w3.org/2000/svg">
<path d="M32 29H19.7086C18.5077 25.1088 17.9073 21.0762 17.9073 16.902C17.9073 12.6571 19.0022 9.29659 21.1921 6.8204C23.4525 4.27347 26.7726 3 31.1523 3V8.94286C27.6203 8.94286 25.8543 11.1007 25.8543 15.4163V17.4326H32V29ZM14.0927 29H1.80132C0.600442 25.1088 0 21.0762 0 16.902C0 12.6571 1.09492 9.29659 3.28477 6.8204C5.54525 4.27347 8.86534 3 13.245 3V8.94286C9.71302 8.94286 7.94702 11.1007 7.94702 15.4163V17.4326H14.0927V29Z" fill="#FB9DDB"/>
</svg>
