<svg width="32" height="32" viewBox="0 0 32 32" fill="none" xmlns="http://www.w3.org/2000/svg">
<path d="M9.43147 13.0842L6.68795 15.8277C4.34481 18.1708 4.34481 21.9698 6.68795 24.313C9.0311 26.6561 12.8301 26.6561 15.1732 24.313L18.8301 20.6561C21.1732 18.313 21.1732 14.514 18.8301 12.1708C18.3342 11.6749 17.7731 11.284 17.1745 10.998L16.0017 12.1708C15.8797 12.2928 15.7768 12.4266 15.6929 12.5685C16.3238 12.7493 16.9189 13.0881 17.4159 13.585C18.978 15.1471 18.978 17.6798 17.4159 19.2419L13.759 22.8987C12.1969 24.4608 9.66426 24.4608 8.10217 22.8987C6.54007 21.3366 6.54007 18.804 8.10217 17.2419L9.68738 15.6567C9.46299 14.8164 9.37769 13.9468 9.43147 13.0842Z" fill="#020202"/>
<path d="M13.1732 9.34239C10.8301 11.6855 10.8301 15.4845 13.1732 17.8277C13.6691 18.3235 14.2302 18.7145 14.8289 19.0005L16.3801 17.4493C15.7234 17.2739 15.1026 16.9286 14.5874 16.4135C13.0254 14.8514 13.0253 12.3187 14.5874 10.7566L18.2443 7.09975C19.8064 5.53765 22.3391 5.53765 23.9012 7.09975C25.4633 8.66185 25.4633 11.1945 23.9012 12.7566L22.3159 14.3418C22.5403 15.1821 22.6256 16.0517 22.5718 16.9143L25.3154 14.1708C27.6585 11.8277 27.6585 8.02868 25.3154 5.68554C22.9722 3.34239 19.1732 3.34239 16.8301 5.68554L13.1732 9.34239Z" fill="#020202"/>
</svg>
