<svg width="32" height="32" viewBox="0 0 32 32" fill="none" xmlns="http://www.w3.org/2000/svg">
<path d="M27.25 6.40441V25.5956C27.25 26.0344 27.0757 26.4552 26.7654 26.7654C26.4552 27.0757 26.0344 27.25 25.5956 27.25H6.40441C5.96563 27.25 5.54483 27.0757 5.23457 26.7654C4.9243 26.4552 4.75 26.0344 4.75 25.5956V6.40441C4.75 5.96563 4.9243 5.54483 5.23457 5.23457C5.54483 4.9243 5.96563 4.75 6.40441 4.75H25.5956C26.0344 4.75 26.4552 4.9243 26.7654 5.23457C27.0757 5.54483 27.25 5.96563 27.25 6.40441ZM11.3676 13.3529H8.05882V23.9412H11.3676V13.3529ZM11.6654 9.71323C11.6672 9.46295 11.6196 9.21477 11.5254 8.98287C11.4313 8.75097 11.2923 8.53989 11.1166 8.36168C10.9408 8.18348 10.7317 8.04163 10.5011 7.94425C10.2706 7.84686 10.0231 7.79585 9.77279 7.79412H9.71323C9.20425 7.79412 8.71612 7.99631 8.35621 8.35621C7.99631 8.71612 7.79412 9.20425 7.79412 9.71323C7.79412 10.2222 7.99631 10.7104 8.35621 11.0703C8.71612 11.4302 9.20425 11.6324 9.71323 11.6324C9.96354 11.6385 10.2126 11.5953 10.4462 11.5052C10.6798 11.415 10.8933 11.2797 11.0746 11.1071C11.2559 10.9344 11.4014 10.7276 11.5028 10.4987C11.6042 10.2698 11.6594 10.0231 11.6654 9.77279V9.71323ZM23.9412 17.5088C23.9412 14.3257 21.9162 13.0882 19.9044 13.0882C19.2457 13.0553 18.5899 13.1955 18.0023 13.4951C17.4148 13.7947 16.9161 14.2431 16.5559 14.7956H16.4632V13.3529H13.3529V23.9412H16.6618V18.3096C16.6139 17.7328 16.7956 17.1604 17.1673 16.7168C17.5391 16.2732 18.0708 15.9942 18.6471 15.9404H18.7728C19.825 15.9404 20.6059 16.6022 20.6059 18.2699V23.9412H23.9147L23.9412 17.5088Z" fill="#020202"/>
</svg>
